<mxfile host="app.diagrams.net" modified="2022-10-10T06:01:56.113Z" agent="5.0 (Windows NT 10.0; Win64; x64) AppleWebKit/537.36 (KHTML, like Gecko) Chrome/105.0.0.0 Safari/537.36" etag="2S_gH3Ds82r4PY_W2mOn" version="20.3.6" type="github">
  <diagram id="42_Hra3b9k4pF2z7SW69" name="第 1 页">
    <mxGraphModel dx="1550" dy="779" grid="1" gridSize="10" guides="1" tooltips="1" connect="1" arrows="1" fold="1" page="1" pageScale="1" pageWidth="827" pageHeight="1169" math="0" shadow="0">
      <root>
        <mxCell id="0" />
        <mxCell id="1" parent="0" />
        <mxCell id="UogEdA5D63iGV1ypEF-O-4" style="edgeStyle=orthogonalEdgeStyle;rounded=1;orthogonalLoop=1;jettySize=auto;html=1;exitX=1;exitY=0.5;exitDx=0;exitDy=0;exitPerimeter=0;startArrow=none;startFill=0;comic=1;sketch=1;curved=1;" edge="1" parent="1" source="UogEdA5D63iGV1ypEF-O-1" target="UogEdA5D63iGV1ypEF-O-2">
          <mxGeometry relative="1" as="geometry" />
        </mxCell>
        <mxCell id="UogEdA5D63iGV1ypEF-O-5" value="1、用户点击购买，在云端创建订单" style="edgeLabel;html=1;align=center;verticalAlign=middle;resizable=0;points=[];comic=1;sketch=1;rounded=1;fontSize=16;" vertex="1" connectable="0" parent="UogEdA5D63iGV1ypEF-O-4">
          <mxGeometry x="-0.2521" y="1" relative="1" as="geometry">
            <mxPoint x="24" y="1" as="offset" />
          </mxGeometry>
        </mxCell>
        <mxCell id="UogEdA5D63iGV1ypEF-O-7" style="edgeStyle=orthogonalEdgeStyle;rounded=1;orthogonalLoop=1;jettySize=auto;html=1;exitX=1;exitY=0.5;exitDx=0;exitDy=0;exitPerimeter=0;startArrow=none;startFill=0;comic=1;sketch=1;dashed=1;curved=1;" edge="1" parent="1" source="UogEdA5D63iGV1ypEF-O-1" target="UogEdA5D63iGV1ypEF-O-6">
          <mxGeometry relative="1" as="geometry">
            <Array as="points">
              <mxPoint x="210" y="371" />
            </Array>
          </mxGeometry>
        </mxCell>
        <mxCell id="UogEdA5D63iGV1ypEF-O-8" value="4、用户付款动作&lt;br style=&quot;font-size: 20px;&quot;&gt;私人电脑监控收款记录" style="edgeLabel;html=1;align=center;verticalAlign=middle;resizable=0;points=[];comic=1;sketch=1;rounded=1;fontSize=20;" vertex="1" connectable="0" parent="UogEdA5D63iGV1ypEF-O-7">
          <mxGeometry x="0.2975" y="2" relative="1" as="geometry">
            <mxPoint as="offset" />
          </mxGeometry>
        </mxCell>
        <mxCell id="UogEdA5D63iGV1ypEF-O-1" value="" style="fontColor=#0066CC;verticalAlign=top;verticalLabelPosition=bottom;labelPosition=center;align=center;html=1;outlineConnect=0;fillColor=#CCCCCC;strokeColor=#6881B3;gradientColor=none;gradientDirection=north;strokeWidth=2;shape=mxgraph.networks.user_male;comic=1;sketch=1;rounded=1;" vertex="1" parent="1">
          <mxGeometry x="80" y="321" width="40" height="100" as="geometry" />
        </mxCell>
        <mxCell id="UogEdA5D63iGV1ypEF-O-11" style="edgeStyle=orthogonalEdgeStyle;rounded=1;orthogonalLoop=1;jettySize=auto;html=1;exitX=0.26;exitY=0.22;exitDx=0;exitDy=0;exitPerimeter=0;entryX=0.82;entryY=0.07;entryDx=0;entryDy=0;entryPerimeter=0;startArrow=none;startFill=0;comic=1;sketch=1;curved=1;" edge="1" parent="1" source="UogEdA5D63iGV1ypEF-O-2" target="UogEdA5D63iGV1ypEF-O-1">
          <mxGeometry relative="1" as="geometry" />
        </mxCell>
        <mxCell id="UogEdA5D63iGV1ypEF-O-12" value="6、支付结果返回给用户" style="edgeLabel;html=1;align=center;verticalAlign=middle;resizable=0;points=[];comic=1;sketch=1;rounded=1;fontSize=20;" vertex="1" connectable="0" parent="UogEdA5D63iGV1ypEF-O-11">
          <mxGeometry x="0.1268" y="1" relative="1" as="geometry">
            <mxPoint as="offset" />
          </mxGeometry>
        </mxCell>
        <mxCell id="UogEdA5D63iGV1ypEF-O-15" style="edgeStyle=orthogonalEdgeStyle;rounded=1;sketch=1;hachureGap=4;jiggle=2;orthogonalLoop=1;jettySize=auto;html=1;exitX=0.06;exitY=0.5;exitDx=0;exitDy=0;exitPerimeter=0;dashed=1;fontFamily=Architects Daughter;fontSource=https%3A%2F%2Ffonts.googleapis.com%2Fcss%3Ffamily%3DArchitects%2BDaughter;fontSize=16;curved=1;" edge="1" parent="1">
          <mxGeometry relative="1" as="geometry">
            <mxPoint x="470" y="370" as="sourcePoint" />
            <mxPoint x="618" y="640" as="targetPoint" />
            <Array as="points">
              <mxPoint x="615" y="370" />
              <mxPoint x="615" y="543" />
              <mxPoint x="618" y="543" />
            </Array>
          </mxGeometry>
        </mxCell>
        <mxCell id="UogEdA5D63iGV1ypEF-O-16" value="2、发送唤醒指令给到单片机" style="edgeLabel;html=1;align=center;verticalAlign=middle;resizable=0;points=[];fontSize=20;fontFamily=Architects Daughter;" vertex="1" connectable="0" parent="UogEdA5D63iGV1ypEF-O-15">
          <mxGeometry x="0.3265" y="-4" relative="1" as="geometry">
            <mxPoint x="19" y="8" as="offset" />
          </mxGeometry>
        </mxCell>
        <mxCell id="UogEdA5D63iGV1ypEF-O-2" value="" style="html=1;outlineConnect=0;fillColor=#CCCCCC;strokeColor=#6881B3;gradientColor=none;gradientDirection=north;strokeWidth=2;shape=mxgraph.networks.cloud;fontColor=#ffffff;comic=1;sketch=1;rounded=1;" vertex="1" parent="1">
          <mxGeometry x="450" y="295" width="250" height="150" as="geometry" />
        </mxCell>
        <mxCell id="UogEdA5D63iGV1ypEF-O-3" value="" style="fontColor=#0066CC;verticalAlign=top;verticalLabelPosition=bottom;labelPosition=center;align=center;html=1;outlineConnect=0;fillColor=#CCCCCC;strokeColor=#6881B3;gradientColor=none;gradientDirection=north;strokeWidth=2;shape=mxgraph.networks.server;comic=1;sketch=1;rounded=1;" vertex="1" parent="1">
          <mxGeometry x="540" y="335" width="90" height="100" as="geometry" />
        </mxCell>
        <mxCell id="UogEdA5D63iGV1ypEF-O-9" style="edgeStyle=orthogonalEdgeStyle;rounded=1;orthogonalLoop=1;jettySize=auto;html=1;exitX=1;exitY=0.5;exitDx=0;exitDy=0;exitPerimeter=0;startArrow=none;startFill=0;comic=1;sketch=1;curved=1;" edge="1" parent="1" source="UogEdA5D63iGV1ypEF-O-6">
          <mxGeometry relative="1" as="geometry">
            <mxPoint x="520" y="450" as="targetPoint" />
            <Array as="points">
              <mxPoint x="400" y="740" />
              <mxPoint x="400" y="450" />
            </Array>
          </mxGeometry>
        </mxCell>
        <mxCell id="UogEdA5D63iGV1ypEF-O-10" value="5、收款信息反馈给云端" style="edgeLabel;html=1;align=center;verticalAlign=middle;resizable=0;points=[];comic=1;sketch=1;rounded=1;fontSize=20;" vertex="1" connectable="0" parent="UogEdA5D63iGV1ypEF-O-9">
          <mxGeometry x="0.2271" y="1" relative="1" as="geometry">
            <mxPoint x="15" y="87" as="offset" />
          </mxGeometry>
        </mxCell>
        <mxCell id="UogEdA5D63iGV1ypEF-O-6" value="" style="fontColor=#0066CC;verticalAlign=top;verticalLabelPosition=bottom;labelPosition=center;align=center;html=1;outlineConnect=0;fillColor=#CCCCCC;strokeColor=#6881B3;gradientColor=none;gradientDirection=north;strokeWidth=2;shape=mxgraph.networks.pc;comic=1;sketch=1;rounded=1;" vertex="1" parent="1">
          <mxGeometry x="200" y="690" width="136" height="100" as="geometry" />
        </mxCell>
        <mxCell id="UogEdA5D63iGV1ypEF-O-17" style="edgeStyle=orthogonalEdgeStyle;curved=1;rounded=1;sketch=1;hachureGap=4;jiggle=2;orthogonalLoop=1;jettySize=auto;html=1;exitX=0;exitY=0.5;exitDx=0;exitDy=0;entryX=1;entryY=0.5;entryDx=0;entryDy=0;entryPerimeter=0;dashed=1;fontFamily=Architects Daughter;fontSource=https%3A%2F%2Ffonts.googleapis.com%2Fcss%3Ffamily%3DArchitects%2BDaughter;fontSize=16;" edge="1" parent="1" source="UogEdA5D63iGV1ypEF-O-14" target="UogEdA5D63iGV1ypEF-O-6">
          <mxGeometry relative="1" as="geometry" />
        </mxCell>
        <mxCell id="UogEdA5D63iGV1ypEF-O-18" value="3、唤醒主机" style="edgeLabel;html=1;align=center;verticalAlign=middle;resizable=0;points=[];fontSize=20;fontFamily=Architects Daughter;" vertex="1" connectable="0" parent="UogEdA5D63iGV1ypEF-O-17">
          <mxGeometry x="0.202" y="-3" relative="1" as="geometry">
            <mxPoint as="offset" />
          </mxGeometry>
        </mxCell>
        <mxCell id="UogEdA5D63iGV1ypEF-O-14" value="" style="shape=image;imageAspect=0;aspect=fixed;verticalLabelPosition=bottom;verticalAlign=top;image=data:image/jpeg,/9j/4AAQSkZJRgABAQAAAQABAAD/2wCEAAoGBxIRExYUFBMYFBYYGSMaGhoaGxogGhkcIhsiHB0aGhoaICskGh0oIRgYI0ElNCwwMTE0GSE3STcvOyswMS4BCwsLDw4PHRERHS4fIigwMDAwLjAwMDAwMDYwMDAwLjAwMDAwMDAwMDAwMDAwMDA5MTAwMDAwMDAwMDAuMDAwMP/AABEIAOEA4QMBIgACEQEDEQH/xAAcAAEAAgMBAQEAAAAAAAAAAAAABQYDBAcCAQj/xAA9EAACAQMCBQIEBAIJAwUAAAABAgMABBESIQUGEyIxQVEHMmFxFCNCgVKRFTNicoKSobHBJOHwFhdD0fH/xAAYAQEBAQEBAAAAAAAAAAAAAAAAAQIDBP/EACARAQEBAQACAwADAQAAAAAAAAABEQISMQMhUQRBcRP/2gAMAwEAAhEDEQA/AOzUpSgUpSgUpSgUpSgUpSgUpSgUpSgUpSgUpSgUpSgUpSgUpSgUpSgUpSgUpSgUpSgUpSgUpSgUpSgUpSgUpSgUpSgUpSgUpSgUpSgUpSgUpSgUpSgUpSgUpSgUpSgUpSgUpVb5h5ieOaOztwrXDqZGL50QxA4MkgG7EnYIMZPqBQWSlUW9tL8d68TlEgHrDF0P3QLkD/GSM1WrT4xXNvI0V7aoxjco7RMVIIOMhHyG9/mXY1NHX6VW+Fc92M6qxkaDWcL1lMYY5xpV27GbPoGJqwowIyDkHwRVHulKUClKUClKUClKUClKUClKUClKUClKUClKUClKUClKUClK1eJXscETzSNpRFLsfZQMn7/agrPxI45PFCLe0Ba6nB0aSAUQY1yZJAU7hQc/Mw9q49wPnG4t7o3Un/USMuiTqEguvbgErsCNC4OPfzmp/m7mCRI5J3ytze7Ku+YLYZCp9Gwd/dnc/oqgLWZdasx1mT4yxdMlLWQTY2DuvTz6d69xH00j71zS1KXNyTczLF1C0kkmw3OWwvoMtsM7D9sHWt7d5XWNBl3IVR9T7n0A8k+gBNdw4Jydax2sMMkSy4QF1fuUuwy5IPrqJw2xA0jwBV9MqJzTxaGCB7GFI5jKq4kjleRQNTDKrjtkfYhMtjOfYHNybcHh0FyJJGt5Y0Mg/MYnXqVRGIsmJlLN5wSdXnY1NcU+F1ouHgmktZFOtCXyofOUxnuUKwzkHO/nYVVuauTOLFVlk0XYiTSpiOoqNfjphQXOCNwNgAM4UU1Vv5C+IPELwEPBFNgkAgtG7YGSAArqWxk76AfA9asfAviTw+6Yx9QwSDOUmGnGnJbvBKHABPzVyA8ejtArQRTWlwI9HTYAK4ZNDSuxGX21Edqks+c4UKN/k3h/4dVupD1EkXW5jfTLDGNRY9TVjdA2pSQdwo1EEAjvMUiuAykMp3BByCPcEeay1+eOGcYke/lmtXks7eSXICFlj9Dhzgxh2ALbg4B9cVeOL/EC54fc9BjHeppQn9Ew1gkAlAVJxg40L5HvVHT6VVV5+tY+mLoPaNIMoZNJjYf2ZYyyfzIP0qxWd3HMoeKRJEPhkYMp+xU4oNilKUClKUClKUClKUClKUClKUClKUClKUHyub/EriMt1ILWBohHbskk5lJCSPqDRwEj02DN/eT7G4808XNrBqQBpnOiJT+pyDgn+yoDOf7KmuTxxGN5LdLuC4ZpC8kN3HpMkjHLsjgdxY7jZgMeax3cmRvnnWPjvD4p2Ml7a3MD4x14WMsekeCQAdK/TQPXeoO+5QIhkuLe6huoIxqcqdLoPO6HIzj0yCfarTaxGB1QR3fDnZsDp4mtSxOB29wXJ+iVBc68WupJTw4dJ2aRCxiRkMrkDSsgLEAjtJ3Phd+3Fc+LdyNdye0LylbXE1zElsdMjErrKBkRSp1lwwKkaNRx6+K7+fy0wCTpXALHJOB5Ynz71FcncAjsrdIlwWC9z43Zjgu32JUbeyp7VtXV22vCsmBlSrDcnGTuSPfxmulrEj6s414U4Vd3fYl8Dff28D/83EsGEpIRSN19cbnLbbnAz9PFYlm3CFSucAZGr12AOVbz9wME+K2ri3LKf1N9fbPgeg/7Co00OKpFdRlJrcTRn0c77fqBG6EavIO2fNV7ifJFnJHIluVtXkADFoxIuAVOAGPYRoGDnbU3vtZVuCvayYGCMH1yc93uPOwoiBzliSANTt9fYfbYftTUxU+K8vXNu0UdnBE1qS2tSomwxC4Z1lOXzJ3+cDpplgBVX4bwZbON7i5WQsshWKQ6hKmhgBI8WsMVYnSV3yr+Rp36vDgZOkKBv26lYD7+H9PvXuSyjnwJoklwAy9REYrnIx4x/LFWdJjmXHrefirQKknXWNTIQilF0SSnSqGQ90hCnPhVyFySMGR5m5oS3tVENu1tcJIqZOtGVdGosCunUmVx/CcEYNTnMHDLe2kWQLLK0iPGtsirKjA9zyLE5GllZly2cHXjG5rn/Geu1zNplF0lm3WbqL+X5XtfQcyYbTHksSQmNgNr5T0ZV64BzlxA2j3TvbzBEEjRkFCV28SKTht/BU+gzvUty38VLS6B1RTQFQNRMbPGufeSMEKM+rBa5Lxnj/4iMKIuk2DrZXZllJ3wyuSR3blsszHc+BVr4XxKDhVv1IXhusNo3fTIzMpyulVIMXiUZOoA6TvmtMuvWN/FOgeGVJUPhkYMv81NbVfnnkO1jWU3Fw7QB/6p1kaJJHMmlgXiYOADqOdxiN/Ok4skHxBv1v5Le1kjvIdZ0GQYOkecSJuQDsCQxP1zQdipVNufiJBayLFfRtbOy6lZcyxMPoyqHHkeUA3qycL4vb3K6oJo5h7o6tj74O1BvUpSgUpSgUpSgUpSgV8Jr7XO/jVzb+FgFrG2JrgEMR5SLwx+7fKP8R9KCL5ku04i34r8+SKNylv+GbvQAlXmwCMs5BGNzoCbZY1HRO8/5ST23EAD/UXSdOdfoNt2+pX181zeyuZIG1RSPE3ujFT9jjyPoascXPMsihLy3hvEH8ahZB9nUYH+UH61y65u77dOepmJ3jcz2Fr14jNYylxGlu8izRMcgsVD6gqhdRyMeFGNxXv4QcutK7302WLFhGW3JJJ6kp+pJKA/3/pUNMvCr0oDdXFoRsqTEyRqM9wR2LdPPuWA2G1df4GkPQj/AA5RoggCmNgwCgYAypPgbb/X3pJkLXriFyUXtwGPj2H1/wCP3+larqQQJtDAg7rnUf2XAO+N8Y281ti1y5ZsEYwB6Y+o/wDNya0LuBUfde3OceAw9qUZFiDDEUhU+QGHruc4+U/yJGM1sX4Y6RpYgb6tu5tgMgem5PoNqw2yRtlkUggghARjI8YPjfwd9sUWBnZirPGwPdkDuYj6YyBgDceP51R61umB1NY8kMu+N/4j8xw3k+h9qLchdiGiP0+U+5Cttj7VmlTLAMuQAMtjcttgjT4x9R61qIV/+OQr57X8E4xvjYehxjJ+5oNvUZMDKOM58lTt7rg5G9bESYBJYb7ljsAP+ABWtaW5BJYAHwCPUY8n+fj0qB+IXGGiSO2jOlpsmR8gdKBQS8hz4+XzgjYj1ANSqxc8Tg4ndGRpDEsoMMDMQrLCh1ySRhthI7dNRtkapDvpAFa5gSO21WcDFhrEkspPcdjoiOk4wAdRHuRUg95byQzy/hcSRdyJIgURwKwSJUJcfqKFvmLFmwO7Ir3EL2S4leeQDqSHU2nOM4xgAkkAADG+1JNqX6jX1EH/AG9/2xWzw+0nuH0QxGZwpYKoDHSvkgN6eNvXbztVr4J8N57i2E7SiB3OUR42IKejOw/q8nJGx2wfXb5Ycv8AEOGmWQgx9nbLGizwnfOJQqPIifqz0/Kjx5rbKIe/u4tNqk7EKQumPUuG3zEG2YBSzLsQN2Hg1J8Fvk4dMfxNvLaTsdpI0UBUAwAqkEFdQ7tIYNkZxpwdHlrlqW7aURXUcTRaTrDCRJFYFmy4JIAVWzlSPIODsccd7cX0wuJ0F1FAhDZ0RxkCN2X5igO46hUbkKdgNqDZiM3F7xpZZA6RbgSlVzFqysapGuNZUMx2x2nJwBmT+JN9FGkEcEUkFxHIwDqVWREUDEeqNi2s6lbH++1Rl6bF4mkeB4ZnRZIWRenGjEYKKAq9UalDawGHcO4DLDBBa3FvBDfM0b9STCLIGZzoIIcvj+x/EGAxg70HQLDiPErKwNxJcpc6IxKRIFKmNvkCyJhizYO51egwc7SvLXxFS5i6kttJCMAkqRKuDsD2d/kEfJ5BFcov+KJcm2SZHhi1lpXBZmmy+t3BYDUw1ONshc7DbFXLhvG7W2tnFq0MiRI4YOHjk3TIZlfukGsYGANzgDwSHTOGcXguATDKkmPmCkal+jr5U/QgVv1wvljlx+qt3daUeUa45Hcpj007sGVwN98nSm2e7GTifxGvLK6ljt5hcQIQAJlLbgDVpfIkxnOMk/y8h3Clc34D8YIpQOvazQj1kjVpIh9SQAw/ymrzwbi0F3GJYJVljPhlPr6gjyD9DvQb9KUoFcd525/s3u5YJIlkijIQsyK6u4yH8kFQDhdQDfKdvBq/fEXisltYyvEdMjFY1b0QyOE1/wCEMT9wKh+F8mW1rGI4oYyQMPJIgaSQ+rMTuPtnAz4qChpy7wq+H/TymGQjOIj1V/eJsSqo23woqL4h8PbxBrh6d3H/ABQsNX+Q+fsCa3vixy3DatBJGqI0hYMibKdOkiRV/Qctg485B960uVL28fU5uljjTCBpyTrc7iJZARKABudLbZXbuqqq92jRErIrRsPKupVh/hYA10bgMElhBqIQOjRPIkcsqSCXp4jilYD8yM6WYxgMFJkyVGcZeO8Zu1gBuYFVS6BbgFJIkOQQ6kgMmMeCrZIIyN61eIcWjup7eI3JulU6zGhUddnPcjDcLnSF057VY+M4rHVrXMic4DzfPFEpvJY5GJeR9aOknSwDH0hGh1liT82PKgZ+Yz3BubLe4ijkdZLfqI8gEqkpojzrcyqNKrsfmwTjxuM1LmO6680VtJqhiLmW4eWQt0mKklU1egjbCgZGqQedArS4pw2PqR2Nvpiln75IoXlaAIe5GkV8FmVVdz9EXCgsMTSzHSwsVzErxussf6XiYMufGcrkZH+lfI4XjUhW1eMZJ7R42BOPGT5GT7Vzi8mmtYo44DqkkiWG3ki6qS6RIP6yFsBXdtfcEJPcdWQTUrNz9LaRlZVa4lVEAikikjmLAEyySSDK6TpbSB3brkbE09npaSoydStHjJGPG53b74wMg+49s5AjE7lZNhn9LemN8ZXwD61rS8yWyJm51WwBQEyKTEzuurTFKBiULg5YDAxnxUtHbjZlAYY2K7jB39PH/emDxJIkMZZiFRFyT7Af8/7k1y2/F1dPJMiLJJK4lZHOlI7ZG/KiBJG8jRq53BIjjJHdirJ8ROJxPm0du1FWe5GcHpqwMcWTtrkfQuD41q3hTVY4nrsj15Llz1zqaKPSIw6orosb6s9MKFj1jGBt3EEVb+E/Vd47xSW5lMhlLLKoZow2tIgHJSINnwAFYLhdOvGMg16glJTTpUge+Af9f/N6l+RPh6bk655BHAsPVDRupck+ARg6SBliDuNSj1OK3wSGW8uBBbqWZy2gNt2gE5YjYHSN/TP3rUjKaseZLy2P5VxKg/gZtcY+gWTUF8+mDuPaptviXdhGDxRlyjKkqErpYjAYodQk058agM1Tr26aF5IZO1kYo4yGwVO65B9CMevisOlnKrGut3YIijyzMdKj9yQP3ojBCQuCu2nwRsRtg7+R65+9W/lu1tyIulctGyNG87SMywxtIgAGI8M2HJiI6iZ07+mPXDlieczSzosdrF0Y5WCETzLjL9wwVVpAwJ8KId62+PlYYle6VZ2mRGFwobVC/wAoMek4GVUOO9SxQnBxpNEVxm/klljtrm4Voo2A6qLqOg5bEaxgkDS4UDfdRuVAxpcQt4vxM62kMktvHg5jDSMFK5ycqGXcEZI2xv6V8gifptH0UD7S62I6hVlBUKMgHOrVjBY69/AxovbsrBhlXByGGVYHxlSPG4859KCy8Wls14eqQvJFNKYnlgJkMYIXJcLKuQrEkgg7nG5AxVd4Zw2W5lSGFdTtnHkgY9SQDpGSBq8DUMkDesVxK7uzyMzux3ZiWJ9MljudgBn7VZuB3TcNtpp3VFkmiR4dT9+AwK5iONWoN1NQ1BQO7GQKCJs7+8imEMbtI+sIIgyyI5XIVMAlW05OMHAO+xUEZOG2zy8QhF8jp15e8zKyaiwO+HA2LaRjwNh42q6cg8uWsc0XUcS3bwiV0bQ4Ul864iBhWU7HfOwI2NRPHuJ3k11NA7EPqbRC+kx9MMVX8ptpQwAPgls/bAdSHBUUYU9PGwCgYAHgYO/75zULy3D0OL3EMQAR7ZZZwvyCfqFUIH6WaPJIx6A71BfEa8ksLZTb3M9uTssakPH5XUgd8tFgMcBTjA8CrB8IOBNbWfUl1Ga4brSFsltx2qxO5IXBOd9TNUye1XilKVURfMnBo723kt5RlJBg48jBBBB9CCAR9qo9/Z8bs49FvLDeqgwvVRhOFGwBw4EhHjJ3NdMrxJGG2IB+9B+XeY7y7mnMl5rEuAv5g0qoycKoxhFGT49ydya6M/C4OCWfWULdMzJ1gwALEjUhifBCIrBj4bP1NdG43waCWNzJEJQqltLKGJ2zhSdwTj3rjtxFwa9CgNLw9yAAsmWh8Z7ZFLKgHucfagzcttDNB154njhW4aSMgZiR8ZEaqQ5cLmQ5K4DSHAzrztXkEUomiVo72YRdRZlcAxP05NEcTktviNXGllGAzkY7a2rmDiFtw8W8MUVzb9J4jJE2Q6s2rXhARqXJ7sjOo7Z8Q/w74bZRRyG8k6Exk0oWJRo1Cl+rEwIO76QSD+kD1qarJZcFuVngeWdprjKLIJwDbj8vtRnLASOhXGtS5yMkAjfVg48I+IS/iCbZGLZeHWcBgrad1VgjHB1BQcbYwQa2OVL66vZni634gRBumznTGhZdpSRG2t1fCguD85I8bR3Oxsk1xLCYLpJAjKNQVVyW1FVJRu1lTbubY6VxhlkpLYnOBXi3t/LJETdSaWjXU7oqRnEfUXOGBMewIIPex969QaJ7otLoigiQR20Th3DE50K6jJKhtbnHr0xuFAqJteSY5Ssllea2X9ROAWHzsrwkyRLvsCh9AWBIFRnLfFLyy1zxQ9WBwyszh3QAEFyJFPYMlcnwdvJAxm8/jU6/U5JwmO7uZUhB6VthpWSN5FaXOnVGjsCQ758tp0wljscVmufxf4owwnBWUXEzW4MUkmymRpTkd41lNIUANIQQxziN5R5wjjV+uzxMg1xGNWKO4QhS6jO47fYbnfBNTPIhhmhndYRPGz67jqFjKdKmQIBnbuLsWzglgPpWbep/SySo5JrR5OhOzSOELyI6TIZZcERxP26k0KuSSN3lO50A1AcZbqSCzgg0COV0RcHU7atILjcrp0t6nGWzvmtvmMXFvJ+LeVDPcSa4mjOdCLhi2kjYD8tF9gprLyDw0O73LmRQmREynuMuVLEtknOltPg56h8EZrWyTyMtvimOOcVis+Gm1tsnWOm7k6WbUWdtadwfI6m4Zca0BBFePhOkUHXvFbVMkbqIdL/J2nUGCkOSyadKnOM+u1THHOSobsDqTSQz7tnZ0JfHkHdvCLnUPlA8YqQupW4fDGqx6reJANaHdMHdmGD2nOdW+NySPNcb/InjvP3fxr/lfLL6c9+HXChc8SilmwVRzLKX2GvdkDE7ZaTGx8hW9jWPj3Hi3ELma3jTS5McZ0EMmxiDx6Ts7Zbu3PdnGcY6Dd3TGznuVneBWQvI6quXUgqiKHUhyc4GCpy64Yb4oXKHCJXL3EMscfS1qhkXLMxTTnpjUcgSJgAOdTAAPgkdvj7vfPlZjHfM56zdSfDXsUCQSRmMxMMNKOk4dgo1dJ9fWBYb5jOgBBgquRrXPD4lmkiZi8Ft+bLq+eSTcRwud12LlcKqgBpAQp7q2+Yb2SCFoZ7ZWMyLplDK+uXQylowSekjZjK4RD2sBvhhWulPARbSJLC0si4ST8tM7oGZXAGO4d+cAA++22G7bMZXaWRgzkljliGLEgsy/M3gkDz98gVtNjPcAoAIOsakBICkBx4IC/Mc7/vXluF3MSnSq3EJ3zH3Aj5gdHzDK9NsYOzoPWtP+kivYgMbDGpCTp2OfkYZXJ9Btt4oMv4TqyhI0VSO59zoVRuxZiCIwBsWICgkZwKycp38D3SvcOy20JeeODU7rrBzHDEjH5slf73T381iuGMFuSRpkuScHGMRA9zLq8FzlQVHg7MMMtXP4Y8EspICkqiW4cLMykSLoiDZhAcYBBwGwDvqGciirfxXlWzufzJbdVkO5kX8uUHzkyIQcj6kjaoKwklGVsuKxXPmNYrwZlVwCcCQaZfAJwVIwtXWtWPhMCTG5EKLMV0tIBgkf2gNi257sZwSM4qCqWnBLi7lK38CsXIGnQXhGAA0iSFmEbMAq42bJLYwGrpUaYAHtWhwuLJMh9fH/H+n+5qSpClKUqoUpSg+Vyrmr4Uqqu8E5CE5MbrnTk+FdMbDOACM/Wuq1iuoBIjKfDDFS+vocB/oq8s1E8KzRqw1LNFqCOMeZBGSAc5GHHnNbllzlMY9N3aw3SEd2UEUp/tBlGlvcdo+9dj4PwgW8HRDlhlzk7Y1MW2HoAWqsWXJUF2s34iBkcSHpyAlZNJAYg/xhWZ8ZBG+1Z2/UqqLwqfhv5htrl7F5UKMkwARlznT1O5BuPOpD/OtnhvLl/DerfSot6h1a3j0s26kLIq5wxBwcgnIz+3v/wBvndpktXBaMgskrYLqw2IZVwGDI4wQM7bjFV/8HfcNdm1SWmGHyOunOSO5FJRlJBG48j6irLL9wsrxz9dQXV3GIYpI5nOJWlGhnkfSgGMDtyCScY/MOBjzYuNLNwVIem63KRuI5FcKGSXSZCqNGAVU9QthtWzt7sDppz28gWK9tYr1cfNgRuf9ChbBPjR4r5xGw4XxD5LyW0kPiO5ZtGTt2s5KD22c7DxVGlYG2kglnvbeRfxLuUnCFkQ5AVkCyK4VG16hhi4I7sjBx2nKEdxMEsbhWIjMkjs4IQa9KJqjQZZgQSunt9fOKs3MtpxCKy/D/hklh6aorRsSo0sWEiqR2ncrjJyCNyRmoLkrg1k1vK1ywS4LlY9TFDEFTUsmNSkqzjTnfwPG5DRD8xcGvY8S3CArpCrIgj6QBJbA6WACWLEnAySTvkE3DlLiNv0YmjDaYhpYMGCh/OTJp0Fjq6mAc6nPoBUFyhd393OgEizpCxk1TlioIAHc6fmOSG0DVqUBztisHE+JGFpIZYmhv1OgyRr09BZw+vXC6llEbaBGUfPaQ3hax8nPnz4+muO7z1rpVrdwudiyehU+PsP/AL+p+4x8wcIa9jIEwgjiy7SbkRtpOJF0spDIMnOcYJ85qHtITKR+GuoLnR84c6ZF7iFbXDGB3BSSGjYqwxk6gagOYOeZ5LMWgtzDHJgLKxJaWNfnAOlVcFgMuuxUYwM7cPi/j3jrbdb+T5Z1Mivzcbu5ojbGRp1ZwVDKTK7A9hwDqY/Q6sZPrvVg4bbWccsSyI1m0bBNbq/4l2eMAFIz8wEmoH8tx+ZsAAKi+WrCTDXMc0cbIXjjUrrkkYxdwSMbntlG4DbndSM1L8zcRntrdrWe3UGZRIX1RsZGK6XfTpHSB7SBoBzqwQQWr1uLzy1YTXl2mJTNbwSKEZ2GRq3LAqCJHiDDAHaD08YU7zPxV4hDGwtYNMfUURkNtACzAs51diNGukFh3DrZz2VTOCcyz2q6VKmMajpYYxqA196YbDYXYkjYbbVtw8x6Z3uOkXkKFYwXI6eptcjZCZd3ZpCWwP6xxjB2Df4cLDWnSklto4ho66nAnlT8wthsxuzMqHBGAFU52FQnMEtw7iGdomaJiCyqxLkKkek+HwBGPRSCXzvUtLxK1eOV1hRJ4iHjli1RKzlcK4hY4LK5JbKkaVOGyy5rlxBLGFMiuolXqKWz+YrfrBPzZznP1HvUi1ZeQ+XBxG8PVUdGNS8iJhEGThI1RSSiZLH0PafUknr3DeGRwBhGMa21MT5JwFG/oFVVUD0CiuM8mW93HmeKOfoMGRpIRqIdflyi5YhWbftOxb7iZ4D8Tr1RiZI5wCV8YbtOGLAHUnkYDKCcn2NCL3Y852MsvQEjJNr0CN45EdjvgqCu6nBOfTbOKmpt8IPXz9v+5wKr3DuarK4kieWLoThcxNKgJCsu/Tlx4Iqy8MXWzORjfAyQcqPDDG2CNx/eoN+CIKuB/wCetZqUqoUpSgUpSgUpSgUpSg0LXhUUckkqrh5Majn2JO3tuxNRv9Dv+OM2F6RjZTnfOrSdJX+8uasFKz4xdc65m5TszdxR9FYkmOktGqqyllOCuxAOtR6fqINVzmP4ayQyRqtwrI7AKzIQwywXDAHDDuGTt58V2KS3RmVioLL8pIGVyMHB9Kj+YeDfilUazGVbOQMnG2cex2Bz9KmWbi7L7cJkN9wskIZrNz+g7RsT7K2Yn8DcZqWbnP8AELovbSOdT5eMdOUfdHyrMD9V+1df5qtDLAwAJI9gScEFTsPPnP7VV+J8hW1xbrO6PDOyK0hRvmbA1FkbK5O5JABPrTfuxMVPl5+HqzPY3otppAAY7ldIJDZUAk6WIIHyt/xWaz4TcwX0t3fw9QOMrJEmpVbPzYViQMbYAYnYePOrcfDmdoVkt1WaMhg8bModZFdlbSGAUodIPkEZPmoW0l4hw7BSSW3QtpVTpaMsFDFem2Vzgg5wCQxwTvVll9GY2Pibd200yGAB5ZEXqsqgHIDIRk98bNndSMY0/vYuNRS2UEctwkVzEEjhlj0rjqaFbbfBChIxpwgYZJ8IRC/+rYJzovrGOQ4z1IOx/PnpOdJO/wDEKycQ4bBfjRbX5JyD0ZmZJCwXSDolIMhA2yGaqiN5Y4V+J69yrvbtGx6IiiHT1YOpDqxGpKsABqA3fOwAOlxeymaaWBZTcJbLgyANoVEQbHdtJ2MQGTllAFXy3uX4fZCCS1fUEKN0gu6lTmQBgcv7gg+TknGTWPhhwCOZpjJK69PTGqxyPGwZz2PlSGxkYAO2fNXYI6wglsZ2FxEYnKvGHYMRC5TaRWhD6nTUNhnHU3HipTgXAy+h5prWW3ZtDskxzHkYQyYCsilguxK+ikqWr4b+6mvPwMhW8ihuC2k4CPp1AdRwpGhWcjBU7jG4G2xzbw6xXW0lubeYKQoB0pK2Dh4+mnTJJ8qQgIQMMZagrEkEIuGiaU9BZSpkQAtoDEa0HqcDI8/v62u5u7G7ugrypFZxRmUgF4xI5QARxocMemoIDBQ+xGACBVesuXXmQNDLFK3T6jIrjWnygq3ohBcDuK/1ch+VdR1oZeg0kcsKvk9ORXLK0bK++l03RwwxnBBxjBFB07muV7Th8Atm6cRxrljOns0ZTv8AKq23dse0D1wfPI9h+LSX8SgmTA0SMdUgznMZk3LDbVpJOnbxqFUrhnNc8J1W1w8SYGbacaosY36ci+m2/agBPt4n5PiFNLATJb9C37UaWFtXTl6gOY3iYBvQ6PXDeRkVFRlrbLfcWjt4VboJ3yamYOqqFBGI3HSYOqKMHzpYggkHulvEEUKMDHt4/YelVrkiyhK9eIdjqBG5XSzpu2srgEamdmx7FPXNWqkKUpSqhSlKBSlKBSlKBSlKBSlKBSlKBWOWMMpU7gjB+xrJSg1LCxSFNCDbJO+5JYkkk/c1E8G4KR1kmRHjcqArBWDBQRkqcjBGn+RqwUrOTdXXNrzkizluZIBGISwJR0zlCNLrpViVA0l1IwMj9jVb418MLlZViE0Ugb5SQy74JClMMN9JHzetdn/DJr16BrxjVjfHtn9hWnxLhhlkifVgIwJGNzg5GD9/96mWRdlcJj4pfWA6eqWIAbQzLmM/2QkoIA9Owj71vwcy2twgFxaacjHUgPj0JMchDKPtIftXXub4yYchdWDuMZ2Pr/MCoTmf4f2dwHnw8ErDW5jbZm9SyNlc+ckYJ96bNsqYqHKtnDGWPD7iKfWd4ZNay4XI7VYq6+SCe7xUZz+Lq6mgaa2kijiUIzAFzgsOoQcA4AAIGPQ1v8R+Fs3TWS2IuFYZdH0qwcMd0B7dJGNi2QQdznaPg47xexQMxkFuGCfnJqjDYJChn7iD6YbSPG2wqz/RIc5mzS3R7aeNZoisaCIgsy6snWw3ZDgnDbE4G9VvknhQv71YpXbSdUspHzvggkA+hZnGT7Z9asMfG+H3x03dl05D4lgJOfsmxU/TuzmpRvhzPaSxz2Vx05EyQsqZ1g+Udge4EbHz6eCARd/RP3fJtq6aRbQgYx4w/wDnxkt9Sc/Wuaz8gKeKpaJkxsomb+JIskMhPq2V0A+e9fqa6FDxvi7Hp/0ZEGx/Wm4xDn30aNePpnP1qY5Q5deF5bieTrXE2DI4GlAF2SKJT4jQevknB9KfQslrCEQKAAAMbeP2+lZqUqoUpSgUpSgUpSgUpSgUpSgUpSgUpSgUpSgUpSgUpSgVjmjDqVPgjB/eslKDWsbRYkCLnA9/O5zUfwXhzIkkciAqWIAOCGX6j238VMUrOTYuqdY8n2C3rSLbqjRkMoUuEDbEN0wdGRn2+vtVwIzWNYVDFgo1EYJxuQPGTWWrJhWL8Mmc6R/x/Ks1KVUKUpQKUpQKUpQKUpQKUpQKUpQKUpQKUpQKUpQKUpQKUpQKUpQKUpQKUpQKUpQKUpQKUpQKUpQKUpQKUpQKUpQKUpQKUpQKUpQKUpQKUpQKUpQKUpQKUpQKUpQKUpQKUpQKUpQKUpQKUpQKUpQKUpQKUpQKUpQKUpQKUpQKUpQKUpQKUpQKUpQKUpQKUpQKUpQf/9k=;comic=1;sketch=1;rounded=1;" vertex="1" parent="1">
          <mxGeometry x="525" y="640" width="175" height="175" as="geometry" />
        </mxCell>
      </root>
    </mxGraphModel>
  </diagram>
</mxfile>
